<svg xmlns="http://www.w3.org/2000/svg" viewBox="0 0 246.8 75" enable-background="new 0 0 246.8 75"><path d="M0 0v75h75V0H0zm34.2 17.8c5.7 0 10.3 4.6 10.3 10.3H34.2V17.8zM31 38.4c-5.7 0-10.3-4.6-10.3-10.3 0-5.7 4.6-10.3 10.3-10.3v20.6zm10.3 23.4h-7.1V31.4h7.1v30.4zm3.2-9.8V31.4c5.7 0 10.3 4.6 10.3 10.3 0 5.7-4.6 10.3-10.3 10.3zM112.9 41.6c-.3.4-.7 1-1.5 1.6-1.3 1-2.9 1.3-4.2 1.3-3.8 0-6.6-2.8-6.6-6.8s2.7-6.5 6.3-6.5c1.3 0 3.1.3 4.6 2.1 1.4 1.8 1.6 3.8 1.6 5.1H104c0 .4.1.9.4 1.4.5.9 1.5 1.7 3 1.7 1.7 0 2.4-1 2.9-1.5l2.6 1.6zm-3.7-5.4c0-.7-.3-1.2-.7-1.6-.4-.4-1.1-.7-1.8-.7-.6 0-1.2.2-1.7.6-.8.6-.9 1.3-1 1.8h5.2zm16.5 7.9H122l-2.6-4.1-2.5 4.1h-3.7l4.5-6.9-3.6-5.6h3.5l1.9 3.1 1.9-3.1h3.4l-3.6 5.6 4.5 6.9zm4.7-5.8c0 1.5 0 1.7.1 2 .2.6.4 1.2 1.8 1.2.3 0 .5 0 .8-.1v2.9c-.6 0-1.3.1-2.2.1-1.4 0-2-.2-2.4-.4-1.2-.7-1.2-1.8-1.3-2.6v-7.6h-1.7v-2.2h1.7v-4.5h3.2v4.5h2.7v2.2h-2.7v4.5zm15.9 3.3c-.3.4-.7 1-1.5 1.6-1.3 1-2.9 1.3-4.2 1.3-3.8 0-6.6-2.8-6.6-6.8s2.7-6.5 6.3-6.5c1.3 0 3.1.3 4.6 2.1 1.4 1.8 1.6 3.8 1.6 5.1h-9.1c0 .4.1.9.4 1.4.5.9 1.5 1.7 3 1.7 1.7 0 2.4-1 2.9-1.5l2.6 1.6zm-3.6-5.4c0-.7-.3-1.2-.7-1.6-.4-.4-1.1-.7-1.8-.7-.6 0-1.2.2-1.7.6-.8.6-.9 1.3-1 1.8h5.2zm16.6 7.9H156V37c0-.7 0-1.4-.4-2-.1-.2-.6-.9-1.6-.9-.4 0-.8.1-1.1.3-1.4.8-1.4 2.3-1.5 3.3v6.4h-3.3V31.6h3.2v1.2c.6-.6 1.7-1.6 3.6-1.6.4 0 1 .1 1.7.3 2.5 1 2.6 3.2 2.7 4.6v8zm14.1 0h-3.2v-1c-.4.4-1.4 1.3-3.4 1.3-3.1 0-5.6-2.7-5.6-6.5 0-3.9 2.3-6.8 5.8-6.8 1.8 0 2.7.8 3.1 1.1v-5.9h3.2v17.8zm-3.3-7.7c-.2-1.1-1-2.1-2.6-2.1-2.1 0-3 1.8-3 3.6 0 2.4 1.5 3.6 3 3.6.4 0 .8-.1 1.2-.3 1.5-.7 1.5-2 1.5-3.6-.1-.5-.1-.8-.1-1.2zm17.6 5.2c-.3.4-.7 1-1.5 1.6-1.3 1-2.9 1.3-4.2 1.3-3.8 0-6.6-2.8-6.6-6.8s2.7-6.5 6.3-6.5c1.3 0 3.1.3 4.6 2.1 1.4 1.8 1.6 3.8 1.6 5.1h-9.1c0 .4.1.9.4 1.4.5.9 1.5 1.7 3 1.7 1.7 0 2.4-1 2.9-1.5l2.6 1.6zm-3.7-5.4c-.1-.7-.3-1.2-.7-1.6-.4-.4-1.1-.7-1.8-.7-.6 0-1.2.2-1.7.6-.8.6-.9 1.3-1 1.8h5.2zm17.1 7.9h-3.2v-1c-.4.4-1.4 1.3-3.4 1.3-3.1 0-5.6-2.7-5.6-6.5 0-3.9 2.3-6.8 5.8-6.8 1.8 0 2.7.8 3.1 1.1v-5.9h3.2v17.8zm-3.3-7.7c-.2-1.1-1-2.1-2.6-2.1-2.1 0-3 1.8-3 3.6 0 2.4 1.5 3.6 3 3.6.4 0 .8-.1 1.2-.3 1.5-.7 1.5-2 1.5-3.6 0-.5 0-.8-.1-1.2zm9.1 12.2h-3.3v-17h3.3v.9c.6-.5 1.5-1.2 3.3-1.2 3.3 0 5.6 2.7 5.6 6.5 0 4.2-2.4 6.8-5.9 6.8-1.6 0-2.4-.6-3-1.1v5.1zm2.6-14.4c-2.6 0-2.6 2.8-2.6 3.5 0 .8 0 3.8 2.6 3.8 1.7 0 3-1.5 2.9-3.6 0-2.1-1.1-3.7-2.9-3.7zm11.5 9.9h-3.3V26.4h3.3v17.7zm10.1 0c-.1-.2-.1-.4-.2-1-1 1-2.3 1.4-3.7 1.4-2.5 0-4.4-1.3-4.4-4 0-.6.1-1.3.4-1.8.9-1.8 2.5-2.1 5-2.5 1.6-.3 1.9-.4 2.6-.7 0-.7 0-1.9-2.2-1.9-2.1 0-2.3 1-2.4 1.7h-3c0-.8.2-2.3 1.7-3.3 1.1-.7 2.6-.9 3.8-.9.9 0 2.8.1 3.9.9 1.2.8 1.4 1.7 1.4 3.2V41c0 1.2.1 1.8.5 3.1h-3.4zm-2.4-5.4c-1.2.2-2.5.5-2.5 1.7 0 .7.5 1.4 1.9 1.4.8 0 1.6-.3 2.1-.8.7-.7.7-1.2.7-2.8-.5.1-.8.2-2.2.5zm18.1-7.1l-4.4 13.8c-.6 1.7-1.1 3.1-4.1 3.1-.8 0-1.3-.1-1.8-.1v-2.7c.3 0 .5.1 1 .1 1 0 1.9-.4 1.9-1.2 0-.2 0-.3-.1-.5l-4-12.4h3.2l2.5 8.8 2.5-8.8h3.3z"/></svg>